<?xml version="1.0" encoding="UTF-8" standalone="no" ?>
<!DOCTYPE svg PUBLIC "-//W3C//DTD SVG 1.1//EN" "http://www.w3.org/Graphics/SVG/1.1/DTD/svg11.dtd">
<svg xmlns="http://www.w3.org/2000/svg" xmlns:xlink="http://www.w3.org/1999/xlink" version="1.1" width="600" height="250" viewBox="0 0 600 250" xml:space="preserve">
<desc>Created with Fabric.js 4.2.0</desc>
<defs>
</defs>
<rect x="0" y="0" width="100%" height="100%" fill="transparent"></rect>

<g transform="matrix(2.2 0 0 2.2 138.15 125)" id="2250f13e-6867-4b29-ada5-69dcdd48f88c"  >
<path style="stroke: rgb(0,0,0); stroke-width: 0; stroke-dasharray: none; stroke-linecap: butt; stroke-dashoffset: 0; stroke-linejoin: miter; stroke-miterlimit: 4; fill: rgb(0,0,0); fill-rule: nonzero; opacity: 1;" vector-effect="non-scaling-stroke"  transform=" translate(-50, -50)" d="M 49.972 85.797 C 40.082 85.797 31.639000000000003 82.271 24.698 75.329 C 17.701 68.333 14.231 59.88999999999999 14.231 49.99799999999999 C 14.231 40.11099999999999 17.701 31.66699999999999 24.698 24.667999999999992 C 31.639 17.73099999999999 40.082 14.202999999999992 49.972 14.202999999999992 C 59.861000000000004 14.202999999999992 68.305 17.73099999999999 75.30199999999999 24.667999999999992 C 82.29899999999999 31.66699999999999 85.77 40.10999999999999 85.77 49.99799999999999 C 85.77 59.88899999999999 82.29899999999999 68.332 75.30199999999999 75.329 C 68.305 82.271 59.861 85.797 49.972 85.797 z M 49.972 38.087 C 51.303000000000004 38.087 52.458 37.623000000000005 53.383 36.698 C 54.30800000000001 35.772999999999996 54.77 34.674 54.77 33.343 C 54.77 32.014 54.308 30.857000000000003 53.383 29.932000000000002 C 52.458000000000006 29.007 51.303000000000004 28.545 49.972 28.545 C 48.641 28.545 47.541000000000004 29.007 46.617000000000004 29.932000000000002 C 45.693000000000005 30.857000000000003 45.230000000000004 32.014 45.230000000000004 33.343 C 45.230000000000004 34.61600000000001 45.69200000000001 35.716 46.617000000000004 36.698 C 47.601 37.623 48.697 38.087 49.972 38.087 z M 50.55 49.999 L 49.394999999999996 50.059000000000005 C 44.769 50.290000000000006 40.952 51.967000000000006 37.882999999999996 55.148 C 34.818999999999996 58.328 33.31699999999999 62.201 33.31699999999999 66.711 C 33.31699999999999 71.39699999999999 34.934999999999995 75.386 38.233999999999995 78.625 C 41.528999999999996 81.805 45.632999999999996 83.426 50.489999999999995 83.426 C 59.455 83.426 67.205 80.131 73.679 73.536 C 80.158 66.94200000000001 83.398 59.08 83.398 49.998000000000005 C 83.398 40.688 80.274 32.940000000000005 74.086 26.693000000000005 C 67.898 20.507000000000005 59.86 17.152000000000005 49.971000000000004 16.632000000000005 C 55.466 17.325000000000006 59.63 19.060000000000006 62.46300000000001 21.896000000000004 C 65.296 24.787000000000006 66.742 28.546000000000006 66.742 33.343 C 66.742 37.856 65.179 41.731 62.11600000000001 44.852000000000004 C 59.049 48.034 55.176 49.768 50.55 49.999 z M 49.972 71.456 C 48.641 71.456 47.541000000000004 70.99000000000001 46.617000000000004 70.065 C 45.693000000000005 69.14099999999999 45.230000000000004 68.042 45.230000000000004 66.711 C 45.230000000000004 65.44 45.69200000000001 64.28399999999999 46.617000000000004 63.36 C 47.541000000000004 62.431 48.641000000000005 61.969 49.972 61.969 C 51.303000000000004 61.969 52.458 62.431000000000004 53.383 63.36 C 54.308 64.284 54.77 65.439 54.77 66.711 C 54.77 68.042 54.308 69.201 53.383 70.126 C 52.458 70.99 51.303 71.456 49.972 71.456 z" stroke-linecap="round" />
</g>
<g transform="matrix(1.27 0 0 1.27 312 158.58)" style=""  >
		<text xml:space="preserve" font-family="Lato" font-size="40" font-style="normal" font-weight="900" style="stroke: none; stroke-width: 1; stroke-dasharray: none; stroke-linecap: butt; stroke-dashoffset: 0; stroke-linejoin: miter; stroke-miterlimit: 4; fill: rgb(0,0,0); fill-rule: nonzero; opacity: 1; white-space: pre;" ><tspan x="-58.88" y="12.57" >Gestão</tspan></text>
</g>
<g transform="matrix(0.79 0 0 0.79 392.01 101.33)" style="" id="6a6b0a14-0ae4-4fe3-a3c0-ef85a930a20e"  >
		<text xml:space="preserve" font-family="Raleway" font-size="109" font-style="normal" font-weight="900" style="stroke: none; stroke-width: 1; stroke-dasharray: none; stroke-linecap: butt; stroke-dashoffset: 0; stroke-linejoin: miter; stroke-miterlimit: 4; fill: rgb(0,0,0); fill-rule: nonzero; opacity: 1; white-space: pre;" ><tspan x="-194.95" y="34.24" >Projeto</tspan></text>
</g>
</svg>