<svg id="Camada_1" data-name="Camada 1" xmlns="http://www.w3.org/2000/svg" viewBox="0 0 463.68 193.98"><defs><style>.cls-1{fill:#17223a;}.cls-2{fill:#1a3761;}.cls-3{fill:#8d99ae;}.cls-4{fill:#fdc209;}.cls-5{fill:#f6a214;}.cls-6{fill:none;stroke:#1a3761;stroke-width:6px;}.cls-11,.cls-6,.cls-7{stroke-miterlimit:10;}.cls-7{font-size:48px;font-family:Dubai-Regular, Dubai;}.cls-11,.cls-7{fill:#1d1d1b;stroke:#1d1d1b;stroke-width:0.25px;}.cls-8{letter-spacing:-0.02em;}.cls-9{letter-spacing:-0.01em;}.cls-10{letter-spacing:-0.01em;}.cls-11{font-size:93px;font-family:Dubai-Medium, Dubai;font-weight:500;}.cls-12{letter-spacing:-0.01em;}</style></defs><path class="cls-1" d="M46.67,100.61V188a99.89,99.89,0,0,0,17.9,11v-98.4Z" transform="translate(-16.66 -31.82)"/><path class="cls-2" d="M72.18,67.91V202.27a99.41,99.41,0,0,0,17.9,4.92V67.91Z" transform="translate(-16.66 -31.82)"/><path class="cls-3" d="M98.08,43.47V208.26c3.07.28,6.18.44,9.33.44,2.89,0,5.74-.13,8.57-.38V43.47Z" transform="translate(-16.66 -31.82)"/><path class="cls-1" d="M124.13,119.92v87.37A99,99,0,0,0,142,202.5V119.92Z" transform="translate(-16.66 -31.82)"/><path class="cls-3" d="M150.25,91.55V199a100.24,100.24,0,0,0,17.9-11V91.55Z" transform="translate(-16.66 -31.82)"/><polygon class="cls-4" points="160.15 47.85 153.46 55.71 106.04 111.45 114.79 112.43 164.12 54.44 160.15 47.85"/><polygon class="cls-4" points="72.49 81.58 23.56 139.1 28.45 144.61 82.09 81.56 72.49 81.58"/><rect class="cls-5" x="91.93" y="124.66" width="37.61" height="7.3" transform="translate(92.88 -72.99) rotate(40.39)"/><path class="cls-6" d="M174.19,178.23c12.86-14.31,19.2-32.5,19.64-54.56a87.09,87.09,0,1,0-174.15-3.52c-.5,24.95,6.6,45.15,22.45,60.82" transform="translate(-16.66 -31.82)"/><text class="cls-7" transform="translate(195.88 76.13)">P<tspan class="cls-8" x="27.07" y="0">r</tspan><tspan x="43.39" y="0">oj</tspan><tspan class="cls-9" x="78.58" y="0">e</tspan><tspan class="cls-10" x="100.32" y="0">t</tspan><tspan x="117.21" y="0">o</tspan></text><text class="cls-11" transform="translate(191.97 144.56)">Ge<tspan class="cls-12" x="104.25" y="0">s</tspan><tspan x="143.13" y="0">tão</tspan></text></svg>